<svg viewBox="0 0 200 80" fill="none" xmlns="http://www.w3.org/2000/svg">
  <defs>
    <linearGradient id="clawGrad" x1="0%" y1="0%" x2="100%" y2="100%">
      <stop offset="0%" style="stop-color:#e9d5ff"/>
      <stop offset="40%" style="stop-color:#c084fc"/>
      <stop offset="100%" style="stop-color:#6d28d9"/>
    </linearGradient>
  </defs>
  <!-- Cat ears -->
  <polygon points="28,28 18,8 38,22" fill="#3b0764"/>
  <polygon points="28,28 20,10 36,22" fill="#6d28d9"/>
  <polygon points="52,28 42,8 62,22" fill="#3b0764"/>
  <polygon points="52,28 44,10 60,22" fill="#6d28d9"/>
  <!-- Cat head -->
  <ellipse cx="40" cy="40" rx="22" ry="20" fill="#0a0014"/>
  <!-- Eyes -->
  <ellipse cx="32" cy="36" rx="5" ry="6" fill="#12122a"/>
  <ellipse cx="48" cy="36" rx="5" ry="6" fill="#12122a"/>
  <ellipse cx="32" cy="35" rx="3.5" ry="4.5" fill="#9333ea"/>
  <ellipse cx="48" cy="35" rx="3.5" ry="4.5" fill="#9333ea"/>
  <circle cx="31" cy="33.5" r="1.2" fill="white" opacity="0.8"/>
  <circle cx="47" cy="33.5" r="1.2" fill="white" opacity="0.8"/>
  <!-- Nose -->
  <ellipse cx="40" cy="43" rx="2" ry="1.2" fill="#7c3aed"/>
  <!-- Whiskers -->
  <line x1="18" y1="41" x2="32" y2="42" stroke="#4b5563" stroke-width="0.8" opacity="0.5"/>
  <line x1="17" y1="44" x2="32" y2="44" stroke="#4b5563" stroke-width="0.8" opacity="0.4"/>
  <line x1="62" y1="41" x2="48" y2="42" stroke="#4b5563" stroke-width="0.8" opacity="0.5"/>
  <line x1="63" y1="44" x2="48" y2="44" stroke="#4b5563" stroke-width="0.8" opacity="0.4"/>
  <!-- Smile -->
  <path d="M33 49 Q40 53 47 49" stroke="#7c3aed" stroke-width="2" stroke-linecap="round" fill="none"/>
  <!-- Tail -->
  <path d="M58 50 Q72 46 70 38 Q68 30 62 34" stroke="#6d28d9" stroke-width="3" stroke-linecap="round" fill="none"/>
  <!-- Body -->
  <ellipse cx="40" cy="60" rx="16" ry="13" fill="#0a0014"/>
  <!-- CLAW text -->
  <text x="82" y="50" font-family="Georgia, serif" font-weight="900" font-size="32" fill="url(#clawGrad)">CLAW</text>
</svg>
